<svg xmlns="http://www.w3.org/2000/svg" viewBox="0 0 128 128" role="img" aria-label="Visualiser Character Studio icon">
  <rect width="128" height="128" rx="28" fill="#6f2b9f"/>
  <path d="M31 28h66v72H31z" fill="#f2e8f8" opacity=".18"/>
  <path d="M45 35c13-8 28-7 39 2 9 8 13 21 9 33-3 11-12 20-23 24l-6 17-6-17c-15-5-25-18-25-34 0-10 4-19 12-25z" fill="#fff"/>
  <path d="M50 58c4-7 10-11 18-11 8 0 15 4 19 11-4-2-8-3-12-2-5 1-8 4-11 8-3-4-7-7-11-8-2 0-3 1-3 2z" fill="#6f2b9f"/>
  <path d="M47 72c7 9 16 13 27 11 6-1 11-4 15-9-4 12-13 19-25 19-8 0-15-3-20-9z" fill="#6f2b9f" opacity=".8"/>
</svg>
